<?xml version="1.0" encoding="utf-8"?>
<!-- Generator: Adobe Illustrator 23.0.2, SVG Export Plug-In . SVG Version: 6.00 Build 0)  -->
<svg version="1.1" id="Capa_1" xmlns="http://www.w3.org/2000/svg" xmlns:xlink="http://www.w3.org/1999/xlink" x="0px" y="0px"
	 viewBox="0 0 26 26" style="enable-background:new 0 0 26 26;" xml:space="preserve">
<style type="text/css">
	.st0{fill:none;}
	.st1{fill:none;stroke:#FFF;stroke-width:1.9419;stroke-miterlimit:10;}
	.st2{fill:#FFF;}
</style>
<g>
	<polygon class="st0" points="17.96,10.29 17.96,8.41 17.96,8.13 17.68,8.13 15.8,8.14 15.81,10.3 	"/>
	<path class="st0" d="M19.43,11.73v5.22c0,1.36-1.1,2.46-2.46,2.46H9.15c-1.36,0-2.46-1.1-2.46-2.46v-5.22v-2.6
		c0-1.36,1.1-2.46,2.46-2.46h7.82c1.36,0,2.46,1.1,2.46,2.46V11.73z"/>
	<path class="st0" d="M16.55,13.03c0,1.92-1.56,3.49-3.49,3.49s-3.48-1.56-3.48-3.49c0-0.46,0.09-0.9,0.26-1.31h-1.9v5.22
		c0,0.67,0.55,1.22,1.22,1.22h7.82c0.67,0,1.22-0.55,1.22-1.22v-5.22h-1.9C16.45,12.13,16.55,12.57,16.55,13.03z"/>
	<path class="st0" d="M13.06,15.28c1.24,0,2.24-1.01,2.24-2.24c0-0.49-0.16-0.94-0.42-1.31c-0.41-0.57-1.07-0.94-1.82-0.94
		c-0.75,0-1.41,0.37-1.82,0.94c-0.27,0.37-0.42,0.82-0.42,1.31C10.82,14.27,11.83,15.28,13.06,15.28z"/>
	<path class="st1" d="M13,1.08C6.42,1.08,1.08,6.42,1.08,13S6.42,24.92,13,24.92c6.58,0,11.92-5.34,11.92-11.92S19.58,1.08,13,1.08z
		"/>
	<path class="st2" d="M16.97,6.66H9.15c-1.36,0-2.46,1.1-2.46,2.46v2.6v5.22c0,1.36,1.1,2.46,2.46,2.46h7.82
		c1.36,0,2.46-1.1,2.46-2.46v-5.22v-2.6C19.43,7.77,18.33,6.66,16.97,6.66z M17.68,8.13l0.28,0v0.28v1.88l-2.15,0.01L15.8,8.14
		L17.68,8.13z M11.24,11.72c0.41-0.57,1.07-0.94,1.82-0.94c0.75,0,1.41,0.37,1.82,0.94c0.26,0.37,0.42,0.82,0.42,1.31
		c0,1.24-1.01,2.24-2.24,2.24c-1.24,0-2.24-1.01-2.24-2.24C10.82,12.54,10.98,12.09,11.24,11.72z M18.19,16.94
		c0,0.67-0.55,1.22-1.22,1.22H9.15c-0.67,0-1.22-0.55-1.22-1.22v-5.22h1.9c-0.16,0.4-0.26,0.85-0.26,1.31
		c0,1.92,1.56,3.49,3.48,3.49s3.49-1.56,3.49-3.49c0-0.46-0.09-0.9-0.26-1.31h1.9V16.94z"/>
</g>
</svg>
