<?xml version="1.0" encoding="utf-8"?>
<!-- Generator: Adobe Illustrator 23.0.2, SVG Export Plug-In . SVG Version: 6.00 Build 0)  -->
<svg version="1.1" id="Capa_1" xmlns="http://www.w3.org/2000/svg" xmlns:xlink="http://www.w3.org/1999/xlink" x="0px" y="0px"
	 viewBox="0 0 26 26" style="enable-background:new 0 0 26 26;" xml:space="preserve">
<style type="text/css">
	.st0{fill:none;stroke:#FFF;stroke-width:1.9419;stroke-miterlimit:10;}
	.st1{fill:#FFF;}
	.st2{fill:#EA0361;}
</style>
<circle class="st0" cx="12.97" cy="12.95" r="11.92"/>
<g>
	<path class="st1" d="M9,14.53c0.19,0.08,0.36,0,0.42-0.21c0.04-0.15,0.13-0.53,0.17-0.68c0.06-0.21,0.03-0.29-0.12-0.48
		c-0.34-0.41-0.55-0.93-0.55-1.67c0-2.16,1.58-4.09,4.12-4.09c2.25,0,3.48,1.4,3.48,3.27c0,2.46-1.07,4.54-2.65,4.54
		c-0.87,0-1.53-0.74-1.32-1.64c0.25-1.08,0.74-2.25,0.74-3.03c0-0.7-0.37-1.28-1.13-1.28c-0.89,0-1.61,0.94-1.61,2.21
		c0,0.81,0.27,1.35,0.27,1.35s-0.91,3.96-1.08,4.65c-0.15,0.63-0.17,1.33-0.15,1.91c0.06,0.53,0.57,0.95,1.01,0.38
		c0.31-0.51,0.64-1.15,0.82-1.79c0.1-0.38,0.59-2.35,0.59-2.35c0.29,0.57,1.14,1.06,2.04,1.06c2.69,0,4.51-2.5,4.51-5.85
		c0-2.53-2.1-4.89-5.29-4.89c-3.97,0-5.98,2.91-5.98,5.33C7.29,12.74,7.83,14.05,9,14.53z"/>
</g>
</svg>
