<?xml version="1.0" encoding="utf-8"?>
<!-- Generator: Adobe Illustrator 23.0.2, SVG Export Plug-In . SVG Version: 6.00 Build 0)  -->
<svg version="1.1" id="Capa_1" xmlns="http://www.w3.org/2000/svg" xmlns:xlink="http://www.w3.org/1999/xlink" x="0px" y="0px"
	 viewBox="0 0 26 26" style="enable-background:new 0 0 26 26;" xml:space="preserve">
<style type="text/css">
	.st0{fill:#FFF;}
	.st1{fill:none;stroke:#FFF;stroke-width:1.9419;stroke-miterlimit:10;}
</style>
<g>
	<path class="st0" d="M19.61,7.29c-0.55,0.34-1.17,0.58-1.82,0.7c-0.52-0.6-1.27-0.98-2.1-0.99c-1.59-0.03-2.87,1.31-2.87,2.99
		c0,0.24,0.02,0.47,0.07,0.69c-2.39-0.15-4.5-1.4-5.92-3.27C6.73,7.87,6.59,8.39,6.59,8.95c0,1.06,0.51,2.01,1.28,2.57
		c-0.47-0.02-0.91-0.16-1.3-0.4c0,0.01,0,0.03,0,0.04c0,1.49,0.99,2.73,2.3,3.02c-0.24,0.07-0.49,0.1-0.76,0.1
		c-0.18,0-0.37-0.02-0.54-0.06c0.37,1.22,1.43,2.11,2.68,2.14c-0.98,0.82-2.22,1.3-3.57,1.3c-0.23,0-0.46-0.02-0.69-0.04
		C7.27,18.49,8.78,19,10.4,19c5.28,0,8.17-4.6,8.17-8.58c0-0.13,0-0.26-0.01-0.39c0.56-0.42,1.05-0.94,1.43-1.54
		c-0.52,0.23-1.07,0.39-1.65,0.45C18.94,8.57,19.4,7.99,19.61,7.29z"/>
</g>
<circle class="st1" cx="13.01" cy="13.08" r="11.92"/>
</svg>
