<?xml version="1.0" encoding="utf-8"?>
<!-- Generator: Adobe Illustrator 23.0.2, SVG Export Plug-In . SVG Version: 6.00 Build 0)  -->
<svg version="1.1" id="Capa_1" xmlns="http://www.w3.org/2000/svg" xmlns:xlink="http://www.w3.org/1999/xlink" x="0px" y="0px"
	 viewBox="0 0 26 26" style="enable-background:new 0 0 26 26;" xml:space="preserve">
<style type="text/css">
	.st0{fill:none;stroke:#FFF;stroke-width:1.9419;stroke-miterlimit:10;}
	.st1{fill:#FFF;}
</style>
<circle class="st0" cx="13.12" cy="13.16" r="11.92"/>
<g>
	<path class="st1" d="M14.47,15.22c-0.13,0-0.27,0.06-0.4,0.2v2.7c0.13,0.13,0.27,0.2,0.4,0.2c0.23,0,0.35-0.2,0.35-0.6v-1.89
		C14.82,15.43,14.7,15.22,14.47,15.22z"/>
	<path class="st1" d="M12.46,11.2c0.41,0,0.72-0.15,0.95-0.46c0.17-0.22,0.25-0.58,0.25-1.05V8.12c0-0.48-0.08-0.83-0.25-1.05
		c-0.22-0.31-0.54-0.46-0.95-0.46c-0.4,0-0.72,0.15-0.94,0.46c-0.17,0.23-0.25,0.58-0.25,1.05v1.57c0,0.48,0.08,0.83,0.25,1.05
		C11.74,11.05,12.05,11.2,12.46,11.2z M12.07,7.96c0-0.41,0.13-0.62,0.39-0.62c0.26,0,0.39,0.21,0.39,0.62v1.88
		c0,0.41-0.13,0.62-0.39,0.62c-0.26,0-0.39-0.21-0.39-0.62V7.96z"/>
	<path class="st1" d="M14.92,11.2c0.3,0,0.6-0.18,0.93-0.55v0.49h0.81V6.66h-0.81v3.42c-0.18,0.25-0.35,0.38-0.51,0.38
		c-0.11,0-0.17-0.06-0.19-0.19c-0.01-0.03-0.01-0.13-0.01-0.32v-3.3h-0.81v3.54c0,0.32,0.03,0.53,0.07,0.67
		C14.48,11.1,14.66,11.2,14.92,11.2z"/>
	<path class="st1" d="M9.27,8.71v2.43h0.9V8.71l1.08-3.57h-0.91L9.73,7.49L9.09,5.13H8.15c0.19,0.56,0.39,1.12,0.58,1.67
		C9.01,7.65,9.19,8.28,9.27,8.71z"/>
	<path class="st1" d="M17.97,11.79c-1.65-0.18-3.31-0.18-4.97-0.18c-1.66,0-3.33,0-4.97,0.18c-0.7,0.08-1.27,0.6-1.43,1.3
		c-0.23,1.01-0.23,2.1-0.23,3.14c0,1.04,0,2.13,0.23,3.14c0.16,0.71,0.74,1.23,1.44,1.3c1.65,0.18,3.31,0.18,4.97,0.18
		c1.66,0,3.33,0,4.97-0.18c0.7-0.08,1.27-0.6,1.44-1.3c0.23-1.01,0.23-2.1,0.23-3.14c0-1.04,0-2.13-0.23-3.14
		C19.25,12.39,18.67,11.87,17.97,11.79z M10.15,13.88H9.19v5.11H8.29v-5.11H7.35v-0.84h2.8V13.88z M12.57,18.99h-0.8V18.5
		c-0.32,0.37-0.62,0.54-0.92,0.54c-0.26,0-0.44-0.11-0.52-0.33c-0.04-0.13-0.07-0.35-0.07-0.66v-3.5h0.8v3.26
		c0,0.19,0,0.29,0.01,0.31c0.02,0.12,0.08,0.19,0.19,0.19c0.16,0,0.33-0.12,0.51-0.38v-3.38h0.8V18.99z M15.62,17.66
		c0,0.41-0.03,0.7-0.08,0.89c-0.11,0.33-0.32,0.5-0.64,0.5c-0.29,0-0.56-0.16-0.83-0.49v0.43h-0.8v-5.94h0.8v1.94
		c0.26-0.32,0.53-0.48,0.83-0.48c0.32,0,0.53,0.17,0.64,0.5c0.05,0.18,0.08,0.47,0.08,0.89V17.66z M18.65,16.92h-1.61v0.79
		c0,0.41,0.13,0.61,0.41,0.61c0.2,0,0.31-0.11,0.36-0.32c0.01-0.04,0.02-0.22,0.02-0.54h0.82v0.12c0,0.26-0.01,0.44-0.02,0.52
		c-0.03,0.18-0.09,0.34-0.19,0.48c-0.22,0.32-0.55,0.48-0.97,0.48c-0.42,0-0.74-0.15-0.97-0.45c-0.17-0.22-0.26-0.57-0.26-1.04V16
		c0-0.47,0.08-0.82,0.25-1.04c0.23-0.3,0.55-0.45,0.96-0.45c0.4,0,0.72,0.15,0.95,0.45c0.17,0.22,0.25,0.57,0.25,1.04V16.92z"/>
	<path class="st1" d="M17.45,15.22c-0.27,0-0.4,0.2-0.4,0.61v0.41h0.8v-0.41C17.85,15.43,17.71,15.22,17.45,15.22z"/>
</g>
</svg>
